<svg width="16" height="16" viewBox="0 0 16 16" fill="none" xmlns="http://www.w3.org/2000/svg">
<g id="icn settings icn-xs" clip-path="url(#clip0_2984_8455)">
<path id="Vector" d="M0.000488281 1.5C0.000488281 1.36739 0.0531667 1.24021 0.146935 1.14645C0.240703 1.05268 0.36788 1 0.500488 1H2.00049C2.11202 1.00003 2.22034 1.03735 2.30822 1.10602C2.3961 1.1747 2.4585 1.27078 2.48549 1.379L2.89049 3H14.5005C14.5739 3.00007 14.6464 3.0163 14.7128 3.04755C14.7793 3.0788 14.838 3.12429 14.8849 3.1808C14.9317 3.23731 14.9656 3.30345 14.984 3.37452C15.0024 3.44558 15.005 3.51984 14.9915 3.592L13.4915 11.592C13.47 11.7066 13.4092 11.8101 13.3196 11.8846C13.2299 11.9591 13.1171 11.9999 13.0005 12H4.00049C3.88392 11.9999 3.77105 11.9591 3.6814 11.8846C3.59174 11.8101 3.53094 11.7066 3.50949 11.592L2.01049 3.607L1.61049 2H0.500488C0.36788 2 0.240703 1.94732 0.146935 1.85355C0.0531667 1.75979 0.000488281 1.63261 0.000488281 1.5ZM3.10249 4L4.41549 11H12.5855L13.8985 4H3.10249ZM5.00049 12C4.47006 12 3.96135 12.2107 3.58627 12.5858C3.2112 12.9609 3.00049 13.4696 3.00049 14C3.00049 14.5304 3.2112 15.0391 3.58627 15.4142C3.96135 15.7893 4.47006 16 5.00049 16C5.53092 16 6.03963 15.7893 6.4147 15.4142C6.78977 15.0391 7.00049 14.5304 7.00049 14C7.00049 13.4696 6.78977 12.9609 6.4147 12.5858C6.03963 12.2107 5.53092 12 5.00049 12ZM12.0005 12C11.4701 12 10.9613 12.2107 10.5863 12.5858C10.2112 12.9609 10.0005 13.4696 10.0005 14C10.0005 14.5304 10.2112 15.0391 10.5863 15.4142C10.9613 15.7893 11.4701 16 12.0005 16C12.5309 16 13.0396 15.7893 13.4147 15.4142C13.7898 15.0391 14.0005 14.5304 14.0005 14C14.0005 13.4696 13.7898 12.9609 13.4147 12.5858C13.0396 12.2107 12.5309 12 12.0005 12ZM5.00049 13C5.2657 13 5.52006 13.1054 5.70759 13.2929C5.89513 13.4804 6.00049 13.7348 6.00049 14C6.00049 14.2652 5.89513 14.5196 5.70759 14.7071C5.52006 14.8946 5.2657 15 5.00049 15C4.73527 15 4.48092 14.8946 4.29338 14.7071C4.10585 14.5196 4.00049 14.2652 4.00049 14C4.00049 13.7348 4.10585 13.4804 4.29338 13.2929C4.48092 13.1054 4.73527 13 5.00049 13ZM12.0005 13C12.2657 13 12.5201 13.1054 12.7076 13.2929C12.8951 13.4804 13.0005 13.7348 13.0005 14C13.0005 14.2652 12.8951 14.5196 12.7076 14.7071C12.5201 14.8946 12.2657 15 12.0005 15C11.7353 15 11.4809 14.8946 11.2934 14.7071C11.1058 14.5196 11.0005 14.2652 11.0005 14C11.0005 13.7348 11.1058 13.4804 11.2934 13.2929C11.4809 13.1054 11.7353 13 12.0005 13Z" fill="#23A6F0"/>
</g>
<defs>
<clipPath id="clip0_2984_8455">
<rect width="16" height="16" fill="white" transform="translate(0.000488281)"/>
</clipPath>
</defs>
</svg>
